<?xml version="1.0" standalone="no"?><!DOCTYPE svg PUBLIC "-//W3C//DTD SVG 1.1//EN" "http://www.w3.org/Graphics/SVG/1.1/DTD/svg11.dtd"><svg t="1757224628221" class="icon" viewBox="0 0 1024 1024" version="1.1" xmlns="http://www.w3.org/2000/svg" p-id="8320" xmlns:xlink="http://www.w3.org/1999/xlink" width="200" height="200"><path d="M954.61 667.77a20.88 20.88 0 0 0-29.24-4.29L642.45 873.86 532.23 741a20.89 20.89 0 1 0-32.16 26.67l122.87 148.12a20.88 20.88 0 0 0 28.55 3.43L950.3 697a20.9 20.9 0 0 0 4.31-29.23z" fill="#1296db" p-id="8321"></path><path d="M434.89 844.13l-109.24 62.29-109.24-62.29a20.92 20.92 0 0 0-20.69 0L107.4 894.5V142.91a31.6 31.6 0 0 1 31.6-31.58h612.5a31.61 31.61 0 0 1 31.59 31.58v484a20.9 20.9 0 0 0 41.79 0v-484a73.46 73.46 0 0 0-73.38-73.38H139a73.46 73.46 0 0 0-73.4 73.38v787.57a20.89 20.89 0 0 0 31.25 18.15l109.21-62.29 109.24 62.29a20.88 20.88 0 0 0 20.7 0l119.58-68.2a20.89 20.89 0 1 0-20.69-36.3z" fill="#1296db" p-id="8322"></path><path d="M624 283.23H266.45a20.9 20.9 0 1 0 0 41.79H624a20.9 20.9 0 0 0 0-41.79zM624 436.64H266.45a20.9 20.9 0 1 0 0 41.8H624a20.9 20.9 0 0 0 0-41.8zM624 590.06H266.45a20.9 20.9 0 1 0 0 41.8H624a20.9 20.9 0 0 0 0-41.8z" fill="#1296db" p-id="8323"></path></svg>